# xmcd
#
# Track frame offsets:
# 150
# 44290
# 68000
# 95825
# 142522
#
# Disc length: 2439 seconds
#
# Revision: 0
# Processed by: cddbd v1.5.1PL0 Copyright (c) Steve Scherf et al.
# Submitted via: Audion 3.0.2 (http://www.panic.com/audion/)
#
DISCID=3a098505
DTITLE=Meat Loaf - Live at My Father's Place 11/29/77
DYEAR=1900
DGENRE=
TTITLE0=Bat Out of Hell
TTITLE1=Hot Summer Night
TTITLE2=Two Out Of Three Ain't Bad
TTITLE3=Paradise by the Dashboard Light
TTITLE4=All Revved Up With No Place To Go
EXTD=
EXTT0=
EXTT1=
EXTT2=
EXTT3=
EXTT4=
PLAYORDER=
